<svg width="50" height="48" viewBox="0 0 50 48" fill="none" xmlns="http://www.w3.org/2000/svg">
<path d="M21.4005 1L15.4006 15.5263L25.0004 47M25.0004 47L34.6002 15.5263L28.6003 1M25.0004 47C25.7617 47 26.5108 46.8173 27.1883 46.4671C27.8658 46.1168 28.451 45.6091 28.8955 44.9857L48.0712 18.388C48.6797 17.5504 49.0051 16.5377 48.9995 15.4993C48.9939 14.4609 48.6575 13.4519 48.04 12.6211L40.8401 2.93684C40.393 2.33547 39.8133 1.84737 39.1468 1.51119C38.4803 1.17502 37.7454 1 37.0002 1H13.0006C12.254 1.00009 11.5177 1.17587 10.8503 1.51336C10.1829 1.85085 9.60269 2.34074 9.15586 2.94411L1.96078 12.6211C1.34293 13.4516 1.00613 14.4605 1.00008 15.4989C0.994033 16.5373 1.31906 17.5502 1.92718 18.388L21.1029 44.9857C21.5474 45.6091 22.1326 46.1168 22.8101 46.4671C23.4876 46.8173 24.2391 47 25.0004 47ZM1.0008 15.5263H49" stroke="#E5E5E5" stroke-width="2" stroke-linecap="round" stroke-linejoin="round"/>
</svg>
